<svg width="170" height="120" viewBox="0 0 170 120" fill="none" xmlns="http://www.w3.org/2000/svg">
  <g stroke="#FDE68A" stroke-width="4" stroke-linecap="round" stroke-linejoin="round">
    <path d="M48 48 C37 45 30 55 35 64 C39 70 47 67 50 61"/>
    <path d="M108 48 C119 45 127 54 123 64 C119 70 111 67 108 61"/>
    <path d="M50 90 C48 70 62 58 79 58 C96 58 109 70 107 90"/>
    <path d="M63 90 C63 102 70 108 79 108 C88 108 95 102 95 90"/>
    <circle cx="69" cy="74" r="2.7" fill="#FDE68A" stroke="none"/>
    <circle cx="89" cy="74" r="2.7" fill="#FDE68A" stroke="none"/>
    <circle cx="79" cy="82" r="3" fill="#FDE68A" stroke="none"/>
    <path d="M73 87 C75 90 77 92 79 92 C81 92 84 90 86 87"/>
    <path d="M109 89 C124 91 132 99 138 108"/>
  </g>
</svg>
