<svg width="120" height="70" viewBox="0 0 120 70" fill="none" xmlns="http://www.w3.org/2000/svg">
  <g fill="#7CF8D3" fill-opacity="0.65" stroke="#7CF8D3" stroke-opacity="0.75" stroke-width="1.2">
    <path d="M22 24C22 19 27 16 31 20C35 16 40 19 40 24C40 30 31 36 31 36C31 36 22 30 22 24Z"/>
    <path d="M52 15C52 11 56 9 59 12C62 9 66 11 66 15C66 20 59 25 59 25C59 25 52 20 52 15Z"/>
    <path d="M73 34C73 29 78 26 82 30C86 26 91 29 91 34C91 40 82 46 82 46C82 46 73 40 73 34Z"/>
    <path d="M95 18C95 14 99 12 102 15C105 12 109 14 109 18C109 23 102 28 102 28C102 28 95 23 95 18Z"/>
  </g>
</svg>
