<svg width="140" height="84" viewBox="0 0 140 84" fill="none" xmlns="http://www.w3.org/2000/svg">
  <g fill="#8CFBE1" fill-opacity="0.55" stroke="#8CFBE1" stroke-opacity="0.7" stroke-width="1.2">
    <path d="M22 18L24.8 24.2L31 27L24.8 29.8L22 36L19.2 29.8L13 27L19.2 24.2L22 18Z"/>
    <path d="M64 12L66.3 17.1L71.5 19.5L66.3 21.8L64 27L61.7 21.8L56.5 19.5L61.7 17.1L64 12Z"/>
    <path d="M95 34L98 41L105 44L98 47L95 54L92 47L85 44L92 41L95 34Z"/>
    <path d="M121 20L123 24.5L127.5 26.5L123 28.5L121 33L119 28.5L114.5 26.5L119 24.5L121 20Z"/>
    <path d="M47 46L49 50.5L53.5 52.5L49 54.5L47 59L45 54.5L40.5 52.5L45 50.5L47 46Z"/>
  </g>
</svg>
